HIERARCHY
ROOT Hips
{
	OFFSET 0.000000 0.000000 0.000000
	CHANNELS 6 Xposition Yposition Zposition Zrotation Yrotation Xrotation 
	JOINT LeftUpLeg_virtual
	{
		OFFSET 0.000000 0.000000 0.000000
		CHANNELS 3 Zrotation Yrotation Xrotation
		JOINT LeftUpLeg
		{
			OFFSET 8.479694 -4.795517 -0.379053
			CHANNELS 3 Zrotation Yrotation Xrotation
			JOINT LeftLeg
			{
				OFFSET 0.485052 -32.551468 0.112863
				CHANNELS 3 Zrotation Yrotation Xrotation
				JOINT LeftFoot
				{
					OFFSET 0.438033 -32.635670 -3.012641
					CHANNELS 3 Zrotation Yrotation Xrotation
					JOINT LeftToeBase
					{
						OFFSET 0.970169 -13.225353 11.864223
						CHANNELS 3 Zrotation Yrotation Xrotation
						End Site
						{
							OFFSET 0.000000 0.000000 0.000000
						}
					}
				}
			}
		}
	}
	JOINT RightUpLeg_virtual
	{
		OFFSET 0.000000 0.000000 0.000000
		CHANNELS 3 Zrotation Yrotation Xrotation
		JOINT RightUpLeg
		{
			OFFSET -8.479694 -4.795517 -0.379053
			CHANNELS 3 Zrotation Yrotation Xrotation
			JOINT RightLeg
			{
				OFFSET -0.484100 -32.551483 0.112903
				CHANNELS 3 Zrotation Yrotation Xrotation
				JOINT RightFoot
				{
					OFFSET -0.438985 -32.635651 -3.012681
					CHANNELS 3 Zrotation Yrotation Xrotation
					JOINT RightToeBase
					{
						OFFSET -0.970169 -13.225354 11.864223
						CHANNELS 3 Zrotation Yrotation Xrotation
						End Site
						{
							OFFSET 0.000000 0.000000 0.000000
						}
					}
				}
			}
		}
	}
	JOINT Spine_virtual
	{
		OFFSET 0.000000 0.000000 0.000000
		CHANNELS 3 Zrotation Yrotation Xrotation
		JOINT Spine
		{
			OFFSET 0.000000 7.722015 1.166203
			CHANNELS 3 Zrotation Yrotation Xrotation
			JOINT Spine1
			{
				OFFSET 0.000000 12.024086 0.248766
				CHANNELS 3 Zrotation Yrotation Xrotation
				JOINT Spine2
				{
					OFFSET -0.000000 11.503036 -0.491240
					CHANNELS 3 Zrotation Yrotation Xrotation
					JOINT Neck_virtual
					{
						OFFSET 0.000000 0.000000 0.000000
						CHANNELS 3 Zrotation Yrotation Xrotation
						JOINT Neck
						{
							OFFSET 0.000000 18.430687 -3.123054
							CHANNELS 3 Zrotation Yrotation Xrotation
							JOINT Head
							{
								OFFSET -0.000000 9.051071 1.034021
								CHANNELS 3 Zrotation Yrotation Xrotation
								End Site
								{
									OFFSET 0.000000 0.000000 0.000000
								}
							}
						}
					}
					JOINT LeftShoulder_virtual
					{
						OFFSET 0.000000 0.000000 0.000000
						CHANNELS 3 Zrotation Yrotation Xrotation
						JOINT LeftShoulder
						{
							OFFSET 6.197824 13.665230 -4.064723
							CHANNELS 3 Zrotation Yrotation Xrotation
							JOINT LeftArm
							{
								OFFSET 7.778132 -0.187073 -1.709282
								CHANNELS 3 Zrotation Yrotation Xrotation
								JOINT LeftForeArm
								{
									OFFSET 21.954697 0.000000 -2.041093
									CHANNELS 3 Zrotation Yrotation Xrotation
									JOINT LeftHand
									{
										OFFSET 22.992908 0.000000 -0.870901
										CHANNELS 3 Zrotation Yrotation Xrotation
										End Site
										{
											OFFSET 0.000000 0.000000 0.000000
										}
									}
								}
							}
						}
					}
					JOINT RightShoulder_virtual
					{
						OFFSET 0.000000 0.000000 0.000000
						CHANNELS 3 Zrotation Yrotation Xrotation
						JOINT RightShoulder
						{
							OFFSET -6.197824 13.665230 -4.064723
							CHANNELS 3 Zrotation Yrotation Xrotation
							JOINT RightArm
							{
								OFFSET -7.778132 -0.187073 -1.709282
								CHANNELS 3 Zrotation Yrotation Xrotation
								JOINT RightForeArm
								{
									OFFSET -21.954697 0.000000 -2.041093
									CHANNELS 3 Zrotation Yrotation Xrotation
									JOINT RightHand
									{
										OFFSET -22.992908 0.000000 -0.870901
										CHANNELS 3 Zrotation Yrotation Xrotation
										End Site
										{
											OFFSET 0.000000 0.000000 0.000000
										}
									}
								}
							}
						}
					}
				}
			}
		}
	}
}
MOTION
Frames: 11
Frame Time: 0.033333
8.105401 79.447716 0.023825 -179.941183 3.987919 179.959625 -2.131333 0.171177 10.713980 0.731225 0.481718 -29.065692 6.954117 4.092693 26.965694 -3.157717 -6.437615 -13.925583 0.000000 0.000000 0.000000 0.526344 -2.033760 11.002883 -0.776569 8.118006 -28.661980 -1.291806 2.949887 30.240178 8.459627 3.183539 -16.555523 0.000000 0.000000 0.000000 4.274368 1.644200 -2.252770 -2.480776 -2.199864 -2.473078 -0.619273 -1.943710 8.927997 0.017608 0.026220 -0.030928 -1.135581 -0.569396 10.128522 -0.964757 -0.926075 -6.072806 0.000000 0.000000 0.000000 0.225503 0.220218 7.265873 -11.987762 -5.812503 1.966659 -63.825037 -2.972339 2.383403 0.111228 -17.836421 2.156955 0.000000 0.000000 0.000000 -3.629916 1.588792 6.658804 25.131795 0.996894 6.736603 51.039801 5.171966 8.026765 -4.138576 20.774609 -3.265689 0.000000 0.000000 0.000000 
8.026958 79.457603 0.082191 -179.955390 3.803661 179.894656 -2.111418 0.171011 10.712427 0.614295 0.557047 -29.225727 6.808478 4.045612 26.962267 -3.350370 -6.707296 -14.214706 0.000000 0.000000 0.000000 0.210081 -2.009462 10.969373 -0.455548 8.122905 -28.808321 -1.370941 2.662876 30.704624 8.247054 2.908356 -16.202201 0.000000 0.000000 0.000000 4.298745 1.608230 -2.207926 -2.500911 -2.230529 -2.475381 -0.568537 -1.992649 8.897021 0.024728 -0.024010 -0.043141 -1.182287 -0.561860 10.047989 -1.005016 -0.865250 -6.123995 0.000000 0.000000 0.000000 0.192888 0.321389 7.225421 -12.012908 -5.808141 1.911362 -63.590496 -3.434269 2.445456 0.124933 -17.713170 2.159443 0.000000 0.000000 0.000000 -3.621911 1.678006 6.662290 25.001484 1.070919 6.642614 50.997816 5.589859 7.970538 -4.061257 20.691686 -3.220228 0.000000 0.000000 0.000000 
7.905427 79.474609 0.209063 -179.879520 3.759862 179.887375 -2.113727 0.162108 10.672241 0.504451 0.676954 -29.399009 6.843639 3.996620 27.095208 -3.437943 -6.713224 -13.979190 0.000000 0.000000 0.000000 0.743458 -1.762037 10.915978 -1.006507 7.696406 -28.994706 -1.373189 2.544658 31.017265 8.365355 3.153258 -16.314892 0.000000 0.000000 0.000000 4.345099 1.646824 -2.179663 -2.406856 -2.181290 -2.516913 -0.508167 -1.965941 8.839526 -0.025452 -0.026709 -0.045094 -1.057206 -0.393898 9.933616 -1.013471 -0.869272 -6.252609 0.000000 0.000000 0.000000 0.261002 0.318487 7.191616 -11.994663 -6.009166 1.923305 -63.202329 -4.186399 2.694416 0.165614 -17.500560 2.152327 0.000000 0.000000 0.000000 -3.522781 1.702350 6.609486 24.822791 1.269637 6.665191 50.967193 5.937570 7.928352 -4.073789 20.602830 -3.106268 0.000000 0.000000 0.000000 
7.790408 79.486282 0.344674 -179.888878 3.775249 179.869876 -2.132210 0.147520 10.609453 0.376635 0.794317 -29.544164 6.927161 3.973886 27.258226 -3.536324 -6.666316 -13.763242 0.000000 0.000000 0.000000 0.743089 -1.649883 10.837770 -1.053432 7.573395 -29.104887 -1.382641 2.673736 31.142097 8.312913 3.140495 -16.136008 0.000000 0.000000 0.000000 4.290661 1.675960 -2.140360 -2.353781 -2.151816 -2.558868 -0.438355 -1.927309 8.783079 -0.002340 -0.010120 -0.021522 -1.006268 -0.392112 9.793456 -1.095275 -0.871428 -6.445114 0.000000 0.000000 0.000000 0.299459 0.366827 7.163354 -11.951791 -6.297354 1.959249 -62.751912 -5.067250 3.042915 0.171875 -17.302500 2.177325 0.000000 0.000000 0.000000 -3.478828 1.781642 6.548808 24.634230 1.341934 6.799242 51.014358 6.359485 7.997116 -4.134712 20.543331 -3.126936 0.000000 0.000000 0.000000 
7.707049 79.507965 0.507366 -179.907442 3.787406 179.916964 -2.179317 0.103202 10.528153 0.235187 0.895464 -29.678220 7.018074 3.889548 27.322268 -3.655907 -6.594330 -13.468629 0.000000 0.000000 0.000000 1.079018 -1.471744 10.722922 -1.389420 7.186698 -29.313813 -1.563490 2.640155 31.361473 8.482529 3.437062 -16.061798 0.000000 0.000000 0.000000 4.235256 1.650345 -2.120784 -2.297357 -2.153999 -2.636847 -0.378465 -1.893423 8.722874 -0.011370 -0.012812 -0.070661 -0.908279 -0.355243 9.768803 -1.190460 -0.890578 -6.677352 0.000000 0.000000 0.000000 0.389504 0.451732 7.226233 -11.935791 -6.543436 2.023163 -62.309132 -5.874025 3.440658 0.174504 -17.236925 2.204759 0.000000 0.000000 0.000000 -3.409624 1.906673 6.558479 24.520389 1.441724 6.952636 50.879056 6.505731 7.901780 -4.194919 20.632818 -3.025690 0.000000 0.000000 0.000000 
7.648714 79.510567 0.644598 -179.921267 3.746406 179.904369 -2.192449 0.013242 10.450162 0.104105 1.018625 -29.815675 7.135799 3.826458 27.501904 -3.791738 -6.543010 -13.286028 0.000000 0.000000 0.000000 1.124667 -1.580941 10.679849 -1.425862 7.283625 -29.461929 -1.556633 2.830767 31.544747 8.372072 3.345221 -15.878443 0.000000 0.000000 0.000000 4.172052 1.611723 -2.091686 -2.236803 -2.140317 -2.676907 -0.307282 -1.837802 8.702096 0.001578 -0.000006 -0.020908 -0.845583 -0.313594 9.657863 -1.297235 -0.903393 -6.895827 0.000000 0.000000 0.000000 0.471876 0.461389 7.198766 -11.872738 -6.818014 2.097879 -62.014074 -6.460635 3.873542 0.223786 -17.330439 2.194848 0.000000 0.000000 0.000000 -3.337287 1.845683 6.545242 24.250604 1.369871 6.994817 50.841312 6.613914 7.621954 -4.188211 20.751366 -3.143786 0.000000 0.000000 0.000000 
7.598863 79.503807 0.723008 -179.896733 3.722401 -179.964187 -2.179802 -0.158836 10.283040 -0.049109 1.210592 -30.015157 7.267489 3.754516 27.794859 -3.917207 -6.564783 -13.266454 0.000000 0.000000 0.000000 1.186718 -1.498373 10.507148 -1.465433 7.302504 -29.597276 -1.591328 2.919403 31.788831 8.306780 3.258637 -15.858034 0.000000 0.000000 0.000000 4.137409 1.566859 -2.122802 -2.131981 -2.142113 -2.770700 -0.276259 -1.799819 8.694650 -0.003848 0.004866 -0.015315 -0.775427 -0.345640 9.674269 -1.430639 -0.917939 -7.090494 0.000000 0.000000 0.000000 0.542395 0.467510 7.231295 -11.872741 -7.053006 2.183327 -61.838183 -6.778564 4.271043 0.274734 -17.570202 2.148721 0.000000 0.000000 0.000000 -3.264685 1.877477 6.584357 24.022733 1.281659 7.052156 50.789471 6.602460 7.217442 -4.253288 20.868907 -2.968856 0.000000 0.000000 0.000000 
7.522699 79.479195 0.772282 -179.898768 3.737742 -179.985525 -2.161336 -0.222564 10.229368 -0.171100 1.344391 -30.210658 7.362653 3.780013 28.176528 -3.979763 -6.596330 -13.213140 0.000000 0.000000 0.000000 1.239874 -1.562861 10.520113 -1.534068 7.490512 -29.785980 -1.649396 3.118106 32.038126 8.260648 3.141769 -15.862705 0.000000 0.000000 0.000000 4.105778 1.527979 -2.069598 -2.036052 -1.980440 -2.770403 -0.252530 -1.809558 8.723057 -0.012307 -0.023076 0.014536 -0.718098 -0.282553 9.635424 -1.519105 -0.943024 -7.201325 0.000000 0.000000 0.000000 0.595840 0.534461 7.282680 -11.825890 -7.360935 2.195457 -61.751781 -6.870534 4.797667 0.348959 -17.826807 2.081440 0.000000 0.000000 0.000000 -3.251548 1.907169 6.549494 23.956538 1.202462 7.129131 50.599397 6.570500 6.935198 -4.259741 20.903724 -2.690223 0.000000 0.000000 0.000000 
7.418815 79.437332 0.782365 -179.907647 3.777249 -179.991112 -2.185283 -0.279781 10.177924 -0.332667 1.615162 -30.425303 7.513317 3.756912 28.661776 -4.027976 -6.732457 -13.290475 0.000000 0.000000 0.000000 1.238496 -1.510351 10.531597 -1.576449 7.594690 -29.949751 -1.725072 3.233165 32.378577 8.310151 3.077308 -15.953276 0.000000 0.000000 0.000000 4.051885 1.614047 -2.014650 -1.964470 -2.013385 -2.785494 -0.245743 -1.730152 8.779214 0.005912 0.040007 0.014201 -0.727871 -0.162888 9.674000 -1.572419 -0.950754 -7.208312 0.000000 0.000000 0.000000 0.593483 0.525960 7.362614 -11.759438 -7.533001 2.269869 -61.712631 -6.744944 5.071131 0.328906 -18.089771 2.113903 0.000000 0.000000 0.000000 -3.232129 1.791032 6.637559 23.899853 1.144189 7.141247 50.529794 6.553591 6.748124 -4.249511 20.801927 -2.705689 0.000000 0.000000 0.000000 
7.286998 79.394958 0.808275 -179.925597 3.819859 179.986563 -2.239487 -0.300797 10.169754 -0.464954 1.805461 -30.675305 7.626817 3.804952 29.106069 -4.020297 -6.909617 -13.353979 0.000000 0.000000 0.000000 1.194851 -1.381124 10.522008 -1.576813 7.507234 -30.149268 -1.732455 3.483776 32.709588 8.366566 2.972332 -16.068302 0.000000 0.000000 0.000000 4.008008 1.601344 -1.958776 -1.924687 -1.916792 -2.767274 -0.293635 -1.759099 8.853948 -0.001930 0.000249 -0.009997 -0.737388 -0.269393 9.764284 -1.611854 -0.912312 -7.099565 0.000000 0.000000 0.000000 0.619608 0.464034 7.335614 -11.706656 -7.577434 2.292310 -61.720479 -6.460664 5.443454 0.382085 -18.395221 2.096769 0.000000 0.000000 0.000000 -3.225227 1.875539 6.701960 23.981368 1.278365 7.218376 50.412001 6.475930 6.580898 -4.302278 20.731962 -2.596848 0.000000 0.000000 0.000000 
7.123878 79.366493 0.885877 -179.873319 3.812231 -179.978900 -2.312925 -0.336708 10.119810 -0.512032 1.824020 -30.886505 7.677555 3.892800 29.381835 -3.928455 -7.078377 -13.395960 0.000000 0.000000 0.000000 1.182049 -1.289653 10.531528 -1.597627 7.328491 -30.354877 -1.705587 3.621717 32.934192 8.494464 2.936702 -15.980705 0.000000 0.000000 0.000000 4.015563 1.551436 -2.001764 -1.859287 -1.782920 -2.761488 -0.405465 -1.778815 8.955452 0.008006 -0.022942 -0.010697 -0.752582 -0.317121 9.843582 -1.518910 -0.929591 -6.870538 0.000000 0.000000 0.000000 0.585036 0.509969 7.384222 -11.551802 -7.801095 2.302689 -61.692290 -6.150033 5.746405 0.400103 -18.741443 2.080987 0.000000 0.000000 0.000000 -3.290660 1.869832 6.747228 24.192967 1.376903 7.266958 50.275895 6.273739 6.399393 -4.337898 20.807348 -2.446484 0.000000 0.000000 0.000000 
